<svg width="63" height="64" viewBox="0 0 63 64" fill="none" xmlns="http://www.w3.org/2000/svg">
<g clip-path="url(#clip0)">
<path d="M48.965 35.4704C49.1975 35.6599 49.0151 35.8938 48.9709 36.0714C48.8061 36.7347 48.6236 37.401 48.3794 38.0405C48.0821 38.8252 47.7761 39.6158 47.367 40.3413C46.8667 41.2266 46.2752 42.0646 45.6748 42.8878C45.3481 43.3349 44.9185 43.705 44.53 44.1048C44.2504 44.392 43.9767 44.6881 43.6677 44.9457C43.3469 45.2122 42.9879 45.4343 42.6465 45.6741C42.6171 45.6948 42.5906 45.7185 42.5611 45.7393C42.0226 46.1153 41.5017 46.518 40.9396 46.8556C40.4481 47.1487 39.9125 47.3678 39.3975 47.6225C38.1997 48.2147 36.9254 48.5345 35.6216 48.7862C33.2467 49.2481 30.8835 49.2037 28.5232 48.7269C27.964 48.6144 27.4225 48.4072 26.8751 48.2384C26.4043 48.0933 25.9275 47.966 25.4714 47.7824C25.0093 47.5958 24.562 47.3649 24.1235 47.125C23.5673 46.823 23.0022 46.5239 22.4843 46.1627C21.9221 45.7748 21.3983 45.3277 20.8744 44.8865C19.865 44.0366 18.9762 43.0743 18.2582 41.9639C17.646 41.0193 17.1133 40.0244 16.6601 38.994C16.3658 38.3278 16.1657 37.6171 15.9626 36.9183C15.5536 35.5118 15.3829 34.0727 15.3711 32.6041C15.3623 31.4789 15.4565 30.3626 15.7007 29.2758C15.9185 28.3017 16.2305 27.3423 16.5924 26.4125C16.9103 25.5982 17.3135 24.8106 17.7608 24.0615C18.1699 23.3745 18.6702 22.7438 19.1558 22.1072C20.0122 20.9879 21.0481 20.0522 22.1929 19.2438C22.6667 18.9063 23.1641 18.6013 23.6644 18.3022C24.0028 18.0979 24.3619 17.9291 24.718 17.7515C25.1123 17.5531 25.5037 17.3458 25.9128 17.177C26.2218 17.0497 26.5514 16.9786 26.8693 16.875C26.9222 16.8572 26.9693 16.8158 27.0164 16.7802C27.0576 16.7506 27.0959 16.6885 27.1341 16.6885C27.5756 16.6825 27.9434 16.4072 28.3849 16.3627C29.2207 16.2769 30.0477 16.0696 30.8835 15.9985C32.0077 15.9008 33.1407 15.9215 34.262 16.0844C35.0183 16.194 35.7806 16.2887 36.5251 16.4605C37.2844 16.6352 38.0437 16.8424 38.7706 17.1267C39.5976 17.4494 40.4039 17.8373 41.1838 18.2608C41.7901 18.5894 42.361 18.9921 42.9143 19.4097C43.4823 19.839 44.0267 20.3009 44.5418 20.7954C45.0038 21.2366 45.4335 21.7133 45.8308 22.2167C46.2369 22.7319 46.6048 23.2768 46.9462 23.8364C47.3435 24.4938 47.729 25.16 48.0498 25.8588C48.5089 26.8537 48.8738 27.8871 49.0239 28.9857C49.1063 29.5838 49.2593 30.173 49.3152 30.7741C49.3417 31.0495 49.38 31.3308 49.3829 31.6003C49.3888 32.5241 49.3358 33.448 49.2858 34.3718C49.2711 34.6501 49.2034 34.9285 49.1387 35.2009C49.1151 35.2838 49.0327 35.3638 48.965 35.4704ZM17.9315 36.7081C18.0845 36.9331 18.217 37.09 18.3023 37.2647C18.3935 37.4483 18.4524 37.6497 18.5054 37.851C18.5701 38.1027 18.5319 38.4521 18.6878 38.5972C18.9174 38.8104 18.9733 39.0769 19.1087 39.3167C19.3971 39.8231 19.6737 40.3353 19.9857 40.8269C20.33 41.3658 20.6655 41.9165 21.0775 42.4022C21.6161 43.0358 22.2047 43.628 22.808 44.1995C23.2288 44.5992 23.7085 44.9338 24.1617 45.2951C24.3207 45.4224 24.4737 45.5675 24.6473 45.6711C24.9534 45.8547 25.2771 46.0117 25.5861 46.1893C25.7215 46.2663 25.8333 46.3907 25.9717 46.4529C26.4278 46.6483 26.8899 46.8289 27.3519 47.0095C27.8375 47.1961 28.3143 47.433 28.8175 47.5425C29.8652 47.7705 30.9217 47.9926 32.0018 47.966C32.7522 47.9482 33.4998 47.8949 34.2473 47.8416C34.5975 47.8179 34.9477 47.7735 35.292 47.7054C35.5216 47.658 35.7394 47.5455 35.966 47.4774C36.0749 47.4448 36.1985 47.4537 36.3073 47.4182C36.6723 47.3027 37.0343 47.1813 37.3933 47.054C37.5699 46.9918 37.7347 46.9 37.9054 46.826C38.8824 46.4173 39.8154 45.9317 40.6806 45.3129C41.587 44.6674 42.4169 43.933 43.1556 43.1039C43.6471 42.5502 44.1297 41.9728 44.5212 41.348C45.0156 40.5633 45.4335 39.7254 45.8514 38.8933C46.3487 37.9103 46.6519 36.8502 46.8755 35.7813C47.0492 34.9462 47.1522 34.0816 47.1728 33.2288C47.1963 32.2102 47.1786 31.1768 47.0197 30.173C46.8549 29.1337 46.5165 28.1181 46.2192 27.1024C46.0839 26.6376 45.8985 26.1756 45.6748 25.7463C45.4011 25.2222 45.0862 24.7188 44.7537 24.2302C44.2769 23.5285 43.8237 22.7971 43.2586 22.1723C42.62 21.4646 41.9049 20.8161 41.1632 20.2151C40.1361 19.383 39.006 18.6812 37.7641 18.2164C36.8695 17.8818 35.9454 17.6301 35.0242 17.3754C33.9088 17.0675 32.7611 17.0319 31.6163 17.0971C29.7387 17.2007 27.9434 17.6626 26.2512 18.4858C25.6862 18.7582 25.1447 19.081 24.6061 19.4037C24.2795 19.5992 23.9587 19.8212 23.6644 20.064C23.0434 20.5793 22.4018 21.0826 21.8456 21.66C21.2835 22.2434 20.7803 22.8918 20.3094 23.5492C19.6708 24.4405 19.1528 25.4058 18.7437 26.4273C18.1198 27.9819 17.6696 29.5808 17.596 31.2627C17.5548 32.2132 17.5842 33.1667 17.5872 34.1172C17.5872 34.3244 17.543 34.6028 17.6519 34.7271C17.9168 35.0321 17.5106 35.4674 17.8932 35.7161C17.905 35.722 17.8873 35.7665 17.8903 35.7931C17.9021 35.876 17.9079 35.9589 17.9315 36.0359C18.0051 36.2609 18.0875 36.486 18.1758 36.7318C18.0875 36.7258 18.0404 36.7199 17.9315 36.7081Z" fill="#C1C1C1"/>
<path d="M38.8883 36.8324C38.8824 37.4661 38.6264 38.0494 38.3821 38.6328C38.3527 38.7009 38.3203 38.763 38.285 38.8282C38.1673 39.0443 38.2056 39.1391 38.4498 39.2753C38.8089 39.4766 39.1326 39.7668 39.4151 40.0748C39.6064 40.285 39.7506 40.5722 39.8183 40.8506C39.9213 41.271 39.5917 41.5523 39.3533 41.8396C39.2474 41.9698 39.0678 42.0498 38.9119 42.1238C38.7294 42.2097 38.5499 42.2245 38.3439 42.1327C38.2085 42.0735 38.0202 42.1594 37.8642 42.1268C37.6964 42.0912 37.5346 41.9995 37.3786 41.9195C37.1402 41.7981 36.8871 41.6945 36.684 41.5287C36.3809 41.2829 36.169 41.4961 35.9689 41.6412C34.2855 42.8759 32.3903 43.2016 30.3685 42.9855C29.3355 42.8759 28.3496 42.6035 27.452 42.0616C26.5573 41.5198 25.8716 40.7795 25.333 39.8793C24.9505 39.2398 24.6738 38.5795 24.5561 37.8392C24.4855 37.3832 24.615 36.9746 24.7621 36.5659C24.8416 36.3439 25.1329 36.3676 25.3183 36.5719C25.7333 37.0279 25.9687 37.5845 26.2189 38.1383C26.675 39.145 27.2401 40.0866 28.0641 40.8358C29.3826 42.032 30.91 42.3814 32.6404 42.0024C33.7499 41.7596 34.6652 41.197 35.4274 40.3916C35.9924 39.7964 36.4516 39.1006 36.7576 38.3248C36.9018 37.9547 37.0313 37.5757 37.149 37.1937C37.2579 36.8413 37.6699 36.5334 38.0407 36.5571C38.1908 36.5659 38.3498 36.5689 38.491 36.6133C38.6146 36.6518 38.7294 36.7436 38.8883 36.8324Z" fill="#C1C1C1"/>
<path d="M37.1137 28.6304C37.149 28.0855 37.1696 27.4963 37.2285 26.91C37.2815 26.3533 37.6758 25.8618 38.1173 25.8055C38.3645 25.7759 38.6588 25.7611 38.8648 25.8707C39.0414 25.9654 39.1679 26.229 39.2326 26.4451C39.4239 27.0788 39.5181 27.7302 39.4769 28.4024C39.4563 28.7192 39.5711 29.0508 39.5211 29.3588C39.4328 29.871 39.4004 30.4248 39.0296 30.8393C38.9177 30.9637 38.7176 31.0525 38.5469 31.0703C38.2821 31.0969 37.9995 31.094 37.7464 31.0199C37.4051 30.9222 37.2373 30.632 37.2138 30.2767C37.1755 29.7437 37.1461 29.2107 37.1137 28.6304Z" fill="#C1C1C1"/>
<path d="M35.6717 34.2386C35.3774 34.8723 34.8712 35.192 34.2179 35.3223C34.0972 35.346 33.9736 35.3342 33.8529 35.3164C33.4262 35.2483 32.9789 35.3134 32.5463 35.3638C31.6545 35.4733 30.7775 35.5266 29.9005 35.2365C29.5562 35.121 29.1707 35.1506 28.8028 35.1032C28.3113 35.0381 27.9317 34.7923 27.7522 34.3185C27.5638 33.8122 27.6815 33.3562 28.0641 32.9713C28.2172 32.8202 28.3584 32.6515 28.5321 32.5241C28.6174 32.459 28.7704 32.4383 28.8734 32.4649C28.9264 32.4797 28.9706 32.6426 28.9706 32.7403C28.9706 32.9357 28.9676 33.1312 28.9647 33.3266C28.9176 33.4184 28.8793 33.522 28.8558 33.6345C28.7675 34.0372 28.8705 34.4044 29.0853 34.4873C29.0853 34.4962 29.0883 34.5051 29.0912 34.514C29.1118 34.511 29.1324 34.508 29.153 34.5051C29.3502 34.5288 29.5591 34.3274 29.6769 34.0224C29.7034 33.9514 29.7681 33.8744 29.8888 33.8773C30.0418 33.8744 30.1978 33.8744 30.3449 33.907C30.4273 33.9247 30.4656 33.9277 30.5215 33.9751C30.5333 33.9899 30.5568 34.0076 30.548 34.0432C30.5068 34.2238 30.5686 34.4103 30.6804 34.5673C30.6863 34.5732 30.6922 34.5791 30.6981 34.588C30.8511 34.7893 31.1042 34.9404 31.4103 34.9937C31.6428 35.0321 31.8635 35.0055 32.0489 34.9315C32.0577 34.9285 32.0695 34.9285 32.0783 34.9285C32.0783 34.9255 32.0754 34.9226 32.0754 34.9196C32.3196 34.816 32.4962 34.6235 32.5374 34.3837C32.5551 34.286 32.5463 34.1912 32.5198 34.0994C32.6493 34.0817 32.7758 34.0905 32.9082 34.0965C33.0936 34.1083 33.2702 34.1231 33.3379 34.3718C33.3968 34.585 33.7293 34.7124 33.9206 34.6472C34.1119 34.5791 34.2031 34.36 34.1237 34.0935C34.0737 33.9218 33.9854 33.7619 33.9089 33.599C33.8058 33.3769 33.903 33.3029 34.0737 33.1578C34.3444 32.9268 34.6181 33.0334 34.9006 33.0038C35.4215 32.9535 35.8865 33.7826 35.6717 34.2386Z" fill="#C1C1C1"/>
<path d="M27.7257 26.6257C27.6668 26.9396 27.5991 27.2742 27.5373 27.6118C27.502 27.8072 27.4667 28.0056 27.4432 28.201C27.4049 28.5327 27.3814 28.8673 27.346 29.1989C27.2842 29.7585 26.9252 30.1227 26.5161 30.4485C26.4573 30.4958 26.369 30.5136 26.2925 30.5195C26.1041 30.5314 25.9128 30.5314 25.7215 30.5343C25.492 30.5373 25.283 30.3063 25.2771 30.0754C25.2595 29.2907 25.233 28.509 25.2095 27.7243C25.1888 27.0344 25.1947 26.3474 25.4625 25.6901C25.6097 25.3347 25.9893 25.1808 26.3631 25.2015C26.7339 25.2222 26.9929 25.4709 27.3166 25.5746C27.4549 25.619 27.555 25.8559 27.6197 26.0276C27.6874 26.2053 27.6904 26.4037 27.7257 26.6257Z" fill="#C1C1C1"/>
<path d="M9.87958 20.2328L12.4252 22.572L12.4105 22.5987L9.02024 21.9798L7.71356 24.6329L12.7666 27.1528L13.6348 25.3939L10.3858 23.7742L10.3946 23.7535L14.1616 24.325L14.8473 22.9303L12.1162 20.2595L12.1221 20.2476L15.3712 21.8673L16.2423 20.0996L11.1863 17.5797L9.87958 20.2328Z" fill="#C1C1C1"/>
<path d="M17.2488 11.5155L15.636 13.0434L16.2158 15.3086L16.207 15.3204L14.0233 14.5743L12.4047 16.1081L16.5219 17.1296L17.9463 18.6516L19.4119 17.2599L17.9875 15.7409L17.2488 11.5155Z" fill="#C1C1C1"/>
<path d="M22.1871 11.6606L22.7639 12.8065L23.4113 12.4778C23.4967 12.7887 23.3436 13.1826 22.8698 13.4224C22.0929 13.8192 21.4925 13.4461 21.0952 12.6584L21.0805 12.6259C20.6803 11.8294 20.7627 11.1513 21.5102 10.7723C21.7956 10.6272 22.3548 10.5857 22.6079 10.9855L24.3384 10.106C23.585 9.04301 22.346 8.67288 20.8009 9.45756C18.9969 10.3755 18.4613 11.8323 19.3206 13.5438C20.1741 15.2405 21.6102 15.6757 23.3525 14.7904C23.9381 14.4943 24.4414 13.985 24.5856 13.4787L24.8622 13.8725L26.007 13.2891L24.5797 10.4465L22.1871 11.6606Z" fill="#C1C1C1"/>
<path d="M31.2572 6.66827L29.3149 6.97326L29.7858 10.0024C29.8741 10.565 29.9859 11.2845 29.0677 11.4296C28.1112 11.5806 28.0053 10.8582 27.917 10.2985L27.4461 7.26937L25.4979 7.57731L26.0276 10.9884C26.2689 12.5489 27.3225 13.1352 29.2707 12.8272C31.219 12.5193 32.0283 11.6399 31.787 10.0794L31.2572 6.66827Z" fill="#C1C1C1"/>
<path d="M36.5016 7.15391L33.388 6.67126L32.5286 12.2795L35.2656 12.7029C37.4581 13.0434 38.65 12.1137 38.9148 10.3874C39.1297 8.97496 38.597 7.47963 36.5016 7.15391ZM36.9725 10.0676C36.893 10.5887 36.5693 11.4593 35.3686 11.2727L34.6858 11.1661L35.1125 8.38571L35.657 8.47158C37.0696 8.6907 37.0255 9.71226 36.9725 10.0676Z" fill="#C1C1C1"/>
<path d="M41.1014 12.9161L42.8702 9.09335L41.0426 8.23761L38.6647 13.3809L43.1085 15.4626L43.7207 14.139L41.1014 12.9161Z" fill="#C1C1C1"/>
<path d="M46.5594 11.1331L43.2359 15.7201L44.8578 16.9097L48.1813 12.3227L46.5594 11.1331Z" fill="#C1C1C1"/>
<path d="M52.3348 16.4871L50.0599 18.474L50.0422 18.4503L51.0428 14.9888L49.6685 13.3928L45.407 17.1089L46.6755 18.5835L49.0092 16.5463L49.0387 16.5789L48.0322 20.1558L49.3477 21.6837L53.6091 17.9676L52.3348 16.4871Z" fill="#C1C1C1"/>
<path d="M56.2283 23.3656L53.8121 22.4151L53.8062 22.4033L55.5308 21.6808L54.7598 19.8153L49.5507 21.9946L50.3218 23.8601L51.8021 23.2383L52.5231 23.5551L51.1429 25.841L52.0611 28.0618L54.2124 24.2835L57.1318 25.5538L56.2283 23.3656Z" fill="#C1C1C1"/>
<path d="M55.4425 42.6213L56.6991 39.9445L51.6019 37.5223L50.7661 39.299L54.0446 40.8565L54.0358 40.8742L50.2599 40.3768L49.6007 41.7833L52.3818 44.4008L52.3759 44.4127L49.0975 42.8552L48.2587 44.6377L53.3589 47.0628L54.6155 44.386L52.0287 42.0942L52.0404 42.0675L55.4425 42.6213Z" fill="#C1C1C1"/>
<path d="M46.5813 46.1212L45.1422 47.5396L46.596 49.0349L47.4141 53.2484L48.9974 51.688L48.3765 49.4317L48.3853 49.4228L50.5837 50.1245L52.1729 48.5611L48.0351 47.6165L46.5813 46.1212Z" fill="#C1C1C1"/>
<path d="M41.2574 50.0831C40.6777 50.391 40.1862 50.9092 40.0508 51.4155L39.7683 51.0277L38.6353 51.6317L40.1156 54.4477L42.4817 53.1862L41.8843 52.0522L41.2427 52.3927C41.1515 52.0847 41.2986 51.688 41.7666 51.4392C42.5376 51.0306 43.1439 51.3889 43.5559 52.1706L43.5735 52.2002C43.9885 52.9879 43.9179 53.6659 43.1792 54.0598C42.8967 54.2108 42.3375 54.2611 42.0785 53.8702L40.3657 54.7823C41.1397 55.8305 42.3846 56.1769 43.912 55.3626C45.6984 54.4121 46.2045 52.9434 45.3128 51.2497C44.427 49.5708 42.982 49.1652 41.2574 50.0831Z" fill="#C1C1C1"/>
<path d="M35.3656 52.1647C33.4232 52.5082 32.6286 53.4024 32.9023 54.9599L33.4968 58.3592L35.4333 58.0157L34.9065 54.9955C34.8094 54.4358 34.6828 53.7163 35.5951 53.5564C36.5487 53.3876 36.6693 54.1072 36.7664 54.6668L37.2932 57.6871L39.2385 57.3436L38.6441 53.9443C38.3704 52.3868 37.308 51.8212 35.3656 52.1647Z" fill="#C1C1C1"/>
<path d="M25.7715 54.7823C25.5802 56.2006 26.1423 57.6841 28.2436 57.9713L31.3661 58.3947L32.1195 52.7688L29.3767 52.3957C27.1812 52.0996 26.004 53.05 25.7715 54.7823ZM29.6092 56.7099L29.0618 56.6359C27.6462 56.4434 27.6697 55.4218 27.7168 55.0665C27.7875 54.5454 28.0935 53.6659 29.2972 53.8288L29.9829 53.9206L29.6092 56.7099Z" fill="#C1C1C1"/>
<path d="M21.4866 49.787L20.898 51.1224L23.5378 52.298L21.8427 56.1532L23.685 56.9734L25.9687 51.7827L21.4866 49.787Z" fill="#C1C1C1"/>
<path d="M19.704 48.3699L16.4668 53.0188L18.1106 54.1776L21.3478 49.5286L19.704 48.3699Z" fill="#C1C1C1"/>
<path d="M17.8579 46.7371L15.5654 48.8157L15.5359 48.7861L16.4747 45.1884L15.1298 43.6872L10.939 47.4862L12.2398 48.9401L14.4794 46.9118L14.4971 46.9325L13.5612 50.4147L14.965 51.984L19.1558 48.185L17.8579 46.7371Z" fill="#C1C1C1"/>
<path d="M14.1145 41.5286L12.643 42.1771L11.919 41.8751L13.2551 39.5625L12.2957 37.3565L10.2151 41.1792L7.27209 39.9652L8.21973 42.1356L10.6536 43.0388L10.6594 43.0536L8.94664 43.8086L9.75301 45.6593L14.9209 43.3793L14.1145 41.5286Z" fill="#C1C1C1"/>
<path d="M49.8509 8.86829L49.5213 8.51593C49.5065 8.5485 49.5831 8.64325 49.8509 8.86829Z" fill="#C1C1C1"/>
<path d="M39.2385 60.8584C39.2738 60.8435 39.3121 60.8287 39.3415 60.811C39.268 60.8406 39.2444 60.8524 39.2385 60.8584Z" fill="#C1C1C1"/>
<path d="M32.9612 0.0118442C32.973 0.0118442 32.9818 0.0118442 32.9877 0.0118442C33.0318 0.00592209 33.0818 0.00296104 33.1201 0C33.0671 0 33.0142 0.00592209 32.9612 0.0118442Z" fill="#C1C1C1"/>
<path d="M54.4831 13.6593L54.5066 13.6238C54.4949 13.6238 54.4831 13.6327 54.4831 13.6593Z" fill="#C1C1C1"/>
<path d="M3.49921 25.0623C3.49921 25.0652 3.49921 25.0652 3.49921 25.0623C3.51981 25.1274 3.54041 25.1955 3.55807 25.2606L3.49921 25.0623Z" fill="#C1C1C1"/>
<path d="M62.9941 29.4126C63 28.9211 62.9647 28.471 62.9382 28.1423C62.9117 27.8136 62.894 27.6064 62.894 27.6064C62.7439 25.9571 62.4879 24.5091 62.1024 23.1855C61.7404 21.853 61.2607 20.642 60.7133 19.425C59.5655 17.0147 58.1117 14.5689 55.5955 11.5871C53.4177 8.93994 51.7961 7.45645 50.0715 6.07365C49.633 5.73609 49.1975 5.38668 48.7148 5.06985C48.4765 4.907 48.2322 4.74118 47.982 4.5724C47.7231 4.41546 47.4553 4.25557 47.1816 4.08679C46.6342 3.74331 46.0191 3.44128 45.354 3.09484C44.6742 2.78393 43.9414 2.43156 43.0967 2.12954C41.5164 1.48995 39.8242 0.956963 38.1025 0.619404C36.3838 0.272962 34.6504 0.0834552 32.9906 0.0123901C32.5933 0.0656889 32.1254 0.0834552 31.6133 0.0864162C31.1042 0.101221 30.5509 0.116027 29.9917 0.130832C29.4326 0.15452 28.8616 0.207819 28.3201 0.255196C27.7786 0.3233 27.2636 0.421014 26.8104 0.530573C26.5661 0.509845 26.3218 0.518729 26.0776 0.509845C25.7686 0.601638 25.4301 0.69343 25.0887 0.767456C24.7503 0.856288 24.4119 0.930314 24.0881 0.965846L24.1176 0.915508C23.6614 1.06948 23.1758 1.2205 22.7461 1.35078C22.3106 1.48107 21.9368 1.58767 21.722 1.69722L21.7455 1.64393L20.6508 2.03774L20.8185 1.91634C19.2852 2.59442 17.7343 3.31988 16.3746 4.00092L16.5689 4.09271C15.118 4.8004 14.2027 5.43406 13.3669 6.08845C13.155 6.25131 12.9461 6.41121 12.7342 6.57406C12.5252 6.74284 12.3133 6.91458 12.0897 7.09225C11.8631 7.26695 11.6276 7.44757 11.3775 7.643C11.1303 7.84139 10.8654 8.05162 10.5711 8.27074L10.574 8.21448C9.36155 9.62394 8.32269 10.6218 7.31913 11.7056C6.33619 12.7952 5.36501 13.9589 4.56746 15.703C4.76464 15.2677 4.38794 15.8303 4.37617 15.7799C3.50506 17.3078 2.78403 19.0489 3.08127 19.2059C2.95178 19.4931 2.85466 19.6944 2.77814 19.8336C2.70751 19.9757 2.66042 20.0587 2.61922 20.106C2.53682 20.2008 2.48973 20.1653 2.3985 20.2186C2.53976 20.2689 2.17778 21.3112 1.89231 22.2558L1.98354 21.8057C1.6863 22.7029 1.44792 23.6208 1.23603 24.5417C1.36552 24.3818 1.49795 24.2248 1.63922 24.0738C1.20954 25.5011 1.21837 24.3611 0.962336 25.7764L1.19189 25.8031C1.09183 26.3094 0.979993 26.7595 0.865218 27.18C0.753385 27.6034 0.662153 28.0031 0.550321 28.4029C0.435545 28.7997 0.347257 29.1994 0.258968 29.6258C0.170679 30.0522 0.073561 30.5052 0.0294166 31.0116C-0.173648 35.234 0.659211 39.643 2.28373 43.6049C3.89647 47.5845 6.2479 51.1082 8.78473 54.0811L8.89656 54.4541C8.8789 54.5252 8.97602 54.6466 9.14083 54.7858C9.30858 54.922 9.54107 55.0789 9.77651 55.2388C10.0119 55.3958 10.2444 55.5616 10.4328 55.7007C10.6211 55.8369 10.7536 55.9613 10.7712 56.0531L11.5276 56.5654C11.6953 56.7608 12.0897 57.1339 11.6983 56.897C12.3545 57.4241 12.3869 57.4211 12.9196 57.7143L13.5612 58.3716C14.8943 59.3695 16.2481 60.1275 17.6666 60.77C19.091 61.4037 20.5713 61.9515 22.2223 62.5052C24.1705 63.284 27.1724 63.9472 30.2448 63.9857L31.3955 63.9917C31.7781 63.9739 32.1607 63.9561 32.5374 63.9354C32.7257 63.9236 32.9141 63.9176 33.1024 63.9028C33.2908 63.8821 33.4762 63.8643 33.6616 63.8436C34.0295 63.8022 34.3973 63.7696 34.7534 63.7192C35.4656 63.5978 36.1543 63.509 36.7929 63.3521C37.1137 63.281 37.4256 63.2129 37.7258 63.1478C38.0231 63.0678 38.3085 62.9879 38.5793 62.9138C41.6223 62.0166 44.8566 60.8559 47.8879 59.1444C50.9103 57.4418 53.6708 55.1352 55.5925 52.4584C55.7603 52.3192 56.031 51.8277 56.0075 51.8159C57.2465 50.2495 58.3383 48.5646 59.2654 46.791C59.2654 46.791 59.3154 46.6903 59.4096 46.5037C59.5008 46.3172 59.6479 46.0537 59.798 45.7072C59.9511 45.3637 60.1335 44.9492 60.3366 44.4873C60.5161 44.0135 60.7221 43.4924 60.9222 42.9298C61.296 41.7986 61.6845 40.5195 61.9258 39.2255C62.1995 37.9374 62.3378 36.6435 62.4084 35.5242C62.4379 34.9646 62.432 34.4434 62.432 33.9904C62.432 33.5344 62.379 33.1435 62.3437 32.8326C62.2642 32.2108 62.1495 31.9265 62.0053 32.1101C61.9317 32.2019 61.8493 32.4151 61.7551 32.7586C61.655 33.1021 61.5756 33.5847 61.4167 34.2095C61.346 34.5204 61.2695 34.8698 61.1812 35.2607C61.0841 35.6456 60.9752 36.069 60.8546 36.5339C60.7339 36.9958 60.572 37.4933 60.419 38.0352C60.2424 38.5711 60.0511 39.1455 59.8275 39.7585L59.8128 39.6104C59.5714 40.3418 59.3713 41.008 59.1359 41.6121C58.9269 42.2221 58.6974 42.7728 58.4973 43.2999C58.4031 43.5664 58.2971 43.821 58.1941 44.0698C58.0941 44.3214 57.9969 44.5672 57.9057 44.8159C57.7174 45.3075 57.5143 45.7872 57.3407 46.2965C57.1141 46.3646 56.7903 46.9035 56.4754 47.5046C56.1252 48.0849 55.7956 48.7393 55.5307 48.994L55.5484 48.9229C55.3277 49.3404 55.0864 49.752 54.7862 50.1251C54.486 50.4952 54.1829 50.8713 53.8503 51.2118C53.194 51.9106 52.5142 52.5591 51.9639 53.2786C51.9933 53.2075 51.9639 53.1246 52.2405 52.8167C52.0316 53.0684 51.7726 53.3141 51.5283 53.5718C51.2811 53.8234 51.0368 54.0751 50.7985 54.2765C50.3276 54.6851 49.9597 54.9782 49.8538 54.9279C48.6766 55.9495 47.1404 57.0125 45.6512 57.8801C44.1621 58.7506 42.7347 59.4405 41.8519 59.9439L41.9607 59.8403C41.4722 60.163 41.1161 60.2726 40.7482 60.397C40.5628 60.4562 40.3774 60.5184 40.1567 60.5924C39.936 60.6575 39.6888 60.7375 39.3886 60.853C39.315 60.847 39.2238 60.8589 39.2356 60.8441C39.0914 60.9122 38.9324 60.9832 38.7529 61.0454C38.5734 61.1017 38.3821 61.1579 38.182 61.2142C37.7788 61.3238 37.3432 61.4333 36.9077 61.4985C36.4721 61.5666 36.0454 61.6584 35.6628 61.6998C35.2802 61.7472 34.9418 61.7975 34.6946 61.8538L34.6151 61.7324C33.7911 61.8183 32.967 61.9041 32.1401 61.9219C32.4491 61.9219 32.761 61.9308 33.0701 61.9219C32.92 62.1173 32.4403 62.064 31.784 62.0107C31.4544 61.99 31.0806 61.9308 30.6774 61.9071C30.2742 61.8834 29.8387 61.8804 29.3855 61.8952C28.5438 61.8242 27.6785 61.8982 26.7839 61.9426C26.3395 61.9485 25.8922 61.9515 25.4448 61.9219C25.0005 61.8745 24.5619 61.7857 24.1382 61.6406C23.27 61.5962 24.9298 61.5636 23.6702 61.3652C23.6791 61.1728 24.2677 61.4096 23.994 61.1787C22.7785 60.924 22.1046 60.4414 20.6537 60.0002L20.6508 59.8403C20.4094 59.7781 20.174 59.713 19.9474 59.633C19.7237 59.5442 19.5059 59.4524 19.297 59.3547C19.088 59.257 18.882 59.1563 18.6849 59.0556C18.4936 58.9431 18.3052 58.8306 18.1198 58.724C17.3811 58.3005 16.7572 57.8534 16.1245 57.6313C15.2386 57.122 15.0032 56.8555 14.7737 56.5683C14.6559 56.4292 14.5353 56.2929 14.3263 56.1301C14.2233 56.0472 14.0938 55.9613 13.9349 55.8577C13.7819 55.7511 13.5935 55.6297 13.364 55.4935C13.1933 55.2684 13.0138 55.0523 12.8519 54.8243C12.2045 54.1995 12.1956 54.5933 11.5276 53.8353C11.6571 53.7849 10.6888 52.8848 11.1921 53.2046C11.0037 52.9914 10.8183 52.7812 10.63 52.568C10.4387 52.3548 10.2415 52.1475 10.0384 51.9402C9.84125 51.727 9.64407 51.5109 9.44101 51.2888C9.23795 51.0697 9.02605 50.8535 8.83182 50.6137C8.01662 49.6869 7.2279 48.6002 6.59811 47.244C6.33618 47.0249 6.04483 46.5718 5.78291 46.1247C5.5357 45.6717 5.30321 45.2305 5.11191 45.0558C5.13546 44.9995 4.83822 44.3066 4.6381 43.8122C4.53215 43.5664 4.48212 43.3591 4.488 43.3147C4.50272 43.2673 4.57335 43.3828 4.79407 43.744C4.87059 43.8684 4.97065 44.1023 4.92651 44.1023L5.1384 44.2267C4.9059 43.4065 4.61161 42.7047 4.282 42.0118C4.12896 41.6595 3.97593 41.3071 3.81995 40.9488C3.67575 40.5846 3.55803 40.1997 3.45208 39.794C3.54037 40.2855 3.73166 40.9222 3.51683 40.5224C3.38734 40.0161 3.2343 39.5157 3.13718 39.0034L3.32848 39.2906L3.10481 38.1506C3.03712 37.7687 2.99004 37.3837 2.93412 37.0017L2.84289 37.3423C2.81346 37.058 2.80169 36.8182 2.79286 36.599C2.7958 36.3799 2.80463 36.1786 2.80169 35.9772C2.80169 35.5716 2.74283 35.16 2.59862 34.5293C2.43676 33.9578 2.47796 35.6249 2.33964 34.4256C2.3367 34.0407 2.32493 33.6114 2.35141 33.1494C2.3779 32.6875 2.36907 32.1989 2.42499 31.6985C2.49562 30.6947 2.61039 29.6465 2.74577 28.6901C2.55448 28.85 2.62805 28.3318 2.66042 27.7929L2.81346 27.7514C2.88115 26.721 3.00181 26.5463 3.11364 26.3805C3.22547 26.2117 3.36085 26.0548 3.50506 25.048C3.46385 24.9148 3.42265 24.7815 3.39028 24.6483C3.61689 22.7887 3.92296 23.7777 4.21431 21.7139C3.96121 22.4838 3.76698 21.9596 4.19665 21.0417L4.23491 21.3319C4.41149 20.8048 4.41149 20.6035 4.59395 20.2778C4.52921 20.6094 4.71167 20.5176 5.02068 19.7655L4.96182 20.334C5.09425 19.8366 5.20609 19.3243 5.37089 18.8328C6.00069 17.8201 6.83943 16.1294 7.27205 15.8303C7.27205 15.8303 7.29559 15.7977 7.33385 15.7385C7.37211 15.6793 7.43097 15.5964 7.50748 15.4986C7.65463 15.3003 7.85181 15.0278 8.05488 14.7377C8.24911 14.4416 8.48455 14.1543 8.66113 13.8819C8.84065 13.6154 8.97308 13.3785 9.029 13.2334C8.80239 13.7072 9.75296 12.6768 9.61464 13.0854C9.89423 12.4695 11.1568 10.9712 11.8425 10.5685L11.7483 10.684C12.849 9.76607 13.7524 8.94586 14.6913 8.21152C15.6124 7.46238 16.5836 6.81687 17.749 6.27204C17.5636 6.17728 18.8143 5.62949 18.42 5.591C18.7025 5.40741 18.9968 5.2564 19.2852 5.12315C19.5736 4.98694 19.8562 4.85962 20.1357 4.75006C20.7037 4.55463 21.2276 4.36216 21.7161 4.23188C22.2017 4.09863 22.6255 3.95058 22.9845 3.81141C23.3436 3.66928 23.6261 3.5005 23.8174 3.26954C24.403 3.08299 24.7738 3.0593 25.0652 3.03562C25.3566 3.01785 25.5773 3.02081 25.8922 2.98528L25.6038 3.08891C26.1629 2.97639 26.625 2.88164 27.0282 2.79873C27.4343 2.73951 27.7815 2.68917 28.1112 2.6418C28.4408 2.5885 28.7527 2.57073 29.0882 2.54408C29.4237 2.52632 29.7828 2.47894 30.2095 2.47894C31.0541 2.39603 31.1866 2.04959 32.7257 2.17691C32.2254 2.29832 32.8523 2.26278 33.4232 2.31904C33.0553 2.31016 32.9435 2.34865 33.6851 2.48782C33.794 2.45821 33.9588 2.44637 34.1119 2.43748C34.1177 2.44637 34.1472 2.45821 34.1295 2.47006C35.083 2.51447 34.9212 2.47894 34.4827 2.39899C34.5062 2.38419 34.4738 2.35161 34.3385 2.3072C34.8241 2.44341 35.5098 2.52632 36.0836 2.61515C36.6546 2.72175 37.1196 2.8165 37.1578 2.93198C38.5616 3.2044 39.7682 3.45312 40.8983 3.77884C42.0373 4.0779 43.0938 4.45692 44.2033 4.92772C44.4005 5.14092 43.8472 4.99287 43.1997 4.74414C43.7177 4.96918 44.2445 5.18237 44.7477 5.44294C44.7065 5.51105 44.4799 5.41926 44.2033 5.28305C43.9237 5.15868 43.5882 4.99879 43.3469 4.90403C43.5617 5.03728 43.7854 5.16164 44.012 5.27713C44.2386 5.39261 44.4623 5.52289 44.6977 5.63541C44.9302 5.75089 45.1686 5.86341 45.4099 5.97297C45.6453 6.09437 45.8867 6.21578 46.128 6.33718C47.0992 6.81687 48.0762 7.40612 48.9621 8.19968C49.118 8.26482 49.2681 8.33588 49.4241 8.40399L49.5212 8.50762C49.5565 8.45136 50.0303 8.71194 50.3217 8.91921C50.4865 9.24789 50.101 9.15017 50.9868 9.91708C51.1428 10.0888 51.3311 10.2991 51.5548 10.5123C51.7755 10.7284 52.0374 10.9446 52.2905 11.1814C52.5466 11.4183 52.8085 11.6582 53.0645 11.8951C53.3235 12.126 53.5501 12.3747 53.7679 12.5909C53.3588 12.0757 53.5531 12.1852 53.7738 12.3688C53.968 12.5939 54.0946 12.7923 54.2152 12.9729C54.333 13.1565 54.436 13.3282 54.6008 13.4911L54.5154 13.6154C54.5861 13.6065 54.8127 13.8375 55.0599 14.1099C55.3483 14.4445 55.6485 14.8443 55.7456 14.9124C55.825 15.2677 55.1276 14.2254 54.951 14.1751C55.6396 15.1315 55.8192 15.3684 55.9722 15.6201C56.0517 15.7444 56.1311 15.8688 56.2724 16.0849C56.4107 16.3041 56.6196 16.6061 56.9081 17.1243C57.6526 18.1547 56.9463 16.837 57.3878 17.2842C57.9734 18.2435 58.5649 19.1881 58.9711 20.4258C58.974 20.2778 58.9622 20.1327 58.9593 19.9846C59.4331 20.941 59.7598 21.7346 59.9834 22.466C60.0394 22.6496 60.0953 22.8272 60.1483 23.0019C60.1953 23.1796 60.2307 23.3543 60.2689 23.529C60.3425 23.8784 60.4072 24.2219 60.4602 24.5772C61.1106 26.4575 61.4432 27.9854 61.7139 29.1579C61.8346 29.7472 61.9376 30.2476 62.0229 30.6681C62.0994 31.0885 62.1671 31.432 62.2348 31.7015C62.4909 32.7823 62.6615 32.6934 62.8116 32.119C62.9264 31.5238 63.0235 30.3957 62.9941 29.4126Z" fill="#C1C1C1"/>
<path d="M10.9949 31.3752L9.47047 31.3515L9.49401 29.8207L8.17851 29.7999L8.15497 31.3337L6.63051 31.3101L6.61285 32.6336L8.13437 32.6573L8.11082 34.1912L9.42927 34.2089L9.45281 32.6781L10.9743 32.7018L10.9949 31.3752Z" fill="#C1C1C1"/>
<path d="M57.1259 31.3752L55.6014 31.3515L55.6249 29.8207L54.3094 29.7999L54.2859 31.3337L52.7614 31.3101L52.7408 32.6336L54.2653 32.6573L54.2418 34.1912L55.5602 34.2089L55.5837 32.6781L57.1053 32.7018L57.1259 31.3752Z" fill="#C1C1C1"/>
</g>
<defs>
<clipPath id="clip0">
<rect width="63" height="64" fill="white"/>
</clipPath>
</defs>
</svg>
